<?xml version="1.0" encoding="utf-8"?>
<!-- Generator: Adobe Illustrator 21.1.0, SVG Export Plug-In . SVG Version: 6.00 Build 0)  -->
<svg version="1.1" id="Layer_1" xmlns="http://www.w3.org/2000/svg" xmlns:xlink="http://www.w3.org/1999/xlink" x="0px" y="0px"
	 viewBox="0 0 452.3 83.5" style="enable-background:new 0 0 452.3 83.5;" xml:space="preserve">
<style type="text/css">
	.st0{fill:#EC1C24;}
	.st1{fill:#37B34A;}
	.st2{fill:#008BD1;}
</style>
<g>
	<path class="st0" d="M400,19.4c0,1.8,0,3.5,0,5.1c0.1,12,0.2,24,0.2,36c0,6.1,0,12.1,0,18.2c0,2.4-0.3,3-2.7,3.4
		c-3.2,0.5-6.4,0.6-9.6-0.1c-1.8-0.4-2.2-0.9-2.2-2.8c0-24,0-48,0-71.9c0-3.8,2.8-6,6-5.9c3.4,0.1,6.8,0,10.2,0.1
		c3.6,0.1,6.3,1.7,8.1,4.8c1.7,2.9,3.2,5.8,4.7,8.8c4.2,7.8,8.4,15.5,12.4,23.3c3.5,6.7,6.8,13.6,10.2,20.3c0.2,0.3,0.3,0.6,0.6,1.1
		c0-1.9,0-3.5,0-5.1c-0.1-13.1-0.1-26.2-0.2-39.3c0-3.5,0-7.1,0-10.6c0-2,0.7-2.9,2.6-3.2c3.2-0.5,6.4-0.5,9.6,0
		c1.7,0.3,2.4,1.2,2.4,2.9c0,23.9,0,47.8,0,71.7c0,3.8-2.1,6-5.9,6.1c-2.9,0.1-5.8,0.1-8.7,0c-3.1-0.1-5.6-1.7-7.2-4.3
		c-2-3.2-3.8-6.5-5.6-9.8c-4.5-8.4-9-16.9-13.5-25.3c-2.3-4.4-4.7-8.9-6.9-13.4c-1.5-3-2.7-6-4.1-9.1C400.3,20,400.2,19.8,400,19.4z
		"/>
	<path class="st0" d="M332.4,83.5c-5.4,0.1-10.7-0.6-15.8-2.3c-6.6-2.2-11.8-6.1-15.5-12c-2.9-4.8-4.4-10-5.3-15.5
		c-0.8-5.2-1-10.4-0.7-15.7c0.5-8.1,2.3-15.9,6.8-22.8c3.4-5.3,8.1-9.2,13.8-11.8c4.1-1.9,8.4-2.9,12.9-3.2c3.2-0.2,6.5-0.4,9.8-0.2
		c6.1,0.4,12,1.6,17.3,4.8c4.2,2.5,7.5,5.8,10,10c2.5,4.3,4.1,8.9,4.8,13.8c0.5,3,0.6,6.1,0.9,9.2c0.4,5.9-0.1,11.7-1.4,17.4
		c-1.4,6.3-4,12-8.3,16.9c-2.8,3.2-6.2,5.7-10.1,7.5c-4.2,2-8.7,3.1-13.4,3.5C336.2,83.4,334.3,83.4,332.4,83.5z M312.1,41.9
		c-0.1,4.5,0.3,9.1,1.4,13.6c0.9,3.6,2.4,6.9,5,9.6c2.3,2.4,5.2,3.8,8.4,4.5c2.9,0.6,5.8,0.8,8.7,0.4c1.9-0.3,3.9-0.5,5.8-1.3
		c5.5-2.2,8.9-6.4,10.8-11.9c1.6-4.4,2-8.9,2.2-13.5c0.1-2.1-0.1-4.2-0.1-6.2c-0.1-3.9-0.7-7.8-2.1-11.5c-1.7-4.7-4.6-8.5-9.3-10.5
		c-5.6-2.3-11.3-2.4-17-0.6c-5.8,1.9-9.4,6.2-11.5,11.8C312.4,31.3,312,36.5,312.1,41.9z"/>
	<path class="st0" d="M164.8,44.5c1.4,1,2.8,1.9,4.1,3c2.9,2.6,4.8,5.9,6.4,9.4c2.8,6.4,5.5,12.9,8.2,19.4c0.4,1,0.7,2.1,0.9,3.2
		c0.3,1.4-0.1,2.2-1.4,2.5c-1.3,0.3-2.6,0.4-4,0.5c-2.4,0.1-4.8,0-7.3,0c-0.9,0-1.9-0.2-2.8-0.4c-0.9-0.2-1.5-0.9-1.8-1.8
		c-2.4-6.1-4.9-12.3-7.4-18.4c-1.2-3-2.5-5.9-4.5-8.5c-2.1-2.6-4.7-4.1-8.1-4.2c-2.1,0-4.2,0-6.4,0c0,0.4,0,0.8,0,1.2
		c0,9.6,0,19.3,0,28.9c0,1.9-0.4,2.4-2.2,2.8c-3.9,0.8-7.9,0.8-11.8,0c-1.7-0.3-2.1-1-2.1-2.7c0-24.3,0-48.6,0-72.9
		c0-3.2,1.7-4.9,4.9-4.9c8.6,0,17.2-0.1,25.9,0.1c5.4,0.1,10.6,1.2,15.3,4c4.9,2.9,8,7,9.1,12.6c1,5,0.8,9.9-1.2,14.6
		c-2.4,5.8-7,9.2-12.8,11.4C165.5,44.2,165.2,44.3,164.8,44.5z M140.8,36.8c3.2,0,6.3,0.1,9.4,0c1.6,0,3.1-0.2,4.7-0.6
		c3.6-0.9,6.4-2.8,7.8-6.4c1.1-2.9,1-5.8,0.2-8.8c-0.9-3.1-3-5-5.9-6.1c-2.5-0.9-5.1-1-7.7-1.1c-2.5-0.1-5,0-7.5,0
		c-0.9,0-1.1,0.3-1.1,1.1c0,7,0,14,0,21C140.8,36.1,140.8,36.4,140.8,36.8z"/>
	<path class="st0" d="M227.3,42.8c0.2-7.3,1.2-14.4,4.1-21.1c2.2-5.1,5.1-9.7,9.4-13.3c4.4-3.6,9.4-6.2,15.1-7.3
		c2.2-0.4,4.5-0.6,6.8-0.9c5.8-0.6,11.4,0.5,16.8,2.7c1.8,0.7,3.5,1.8,5.2,2.9c1.4,1,2.2,2.5,2.3,4.2c0.1,2.6,0.1,5.2,0,7.8
		c0,1.1-0.3,2.3-1.4,2.8c-1.1,0.5-2-0.3-2.8-0.9c-2.9-2.1-5.9-4-9.4-5c-6.1-1.8-12.1-1.7-17.7,1.9c-2.8,1.8-4.9,4.3-6.4,7.2
		c-2,3.8-3.2,8-3.5,12.3c-0.2,2.3-0.4,4.6-0.3,6.9c0.1,5.4,0.8,10.8,3.2,15.8c2.6,5.4,6.8,9,12.8,10.2c7.4,1.4,14.3-0.2,20.6-4.4
		c0.8-0.5,1.6-1.1,2.5-1.5c1.2-0.6,2.1-0.2,2.4,1.1c0.7,2.9,0.5,5.9,0.3,8.8c-0.2,2.3-1.4,3.9-3.3,5.1c-0.8,0.5-1.6,0.9-2.4,1.3
		c-4.6,2.2-9.6,3.3-14.7,3.7c-7.3,0.5-14.2-0.5-20.8-3.7c-5.1-2.5-9.2-6.1-12.2-10.9c-2.9-4.8-4.7-9.9-5.4-15.4
		C227.8,49.8,227.6,46.3,227.3,42.8z"/>
	<path class="st0" d="M197.2,41.6c0-12.5,0-25,0-37.5c0-1.6,0.3-2.1,1.9-2.5c3.2-0.9,6.5-0.8,9.8-0.5c0.8,0.1,1.7,0.2,2.5,0.4
		c1.7,0.4,2.2,1,2.2,2.8c0,19.9,0,39.9,0,59.8c0,4.7-0.1,9.4,0,14.1c0,3.1-0.8,3.4-3.3,3.8c-3.5,0.5-7,0.5-10.5-0.1
		c-2.1-0.4-2.5-0.9-2.5-3C197.2,66.6,197.2,54.1,197.2,41.6z"/>
</g>
<g id="XMLID_1_">
	<path id="XMLID_5_" class="st0" d="M65.5,52.3V7.4c0-2-1.6-3.6-3.6-3.6H3.6C1.6,3.8,0,5.4,0,7.4v56.9c0,2,1.6,3.6,3.6,3.6h45.6
		c2,0,3.6-1.6,3.6-3.6v-4.7c0-2,1.6-3.6,3.6-3.6h5.6C63.9,56,65.5,54.3,65.5,52.3z"/>
	<path id="XMLID_6_" class="st1" d="M81.9,43.8H69.1c-2,0-3.6,1.6-3.6,3.7v4.7c0,2-1.6,3.7-3.6,3.7h-5.5c-2,0-3.6,1.6-3.6,3.7v18.5
		c0,2,1.6,3.7,3.6,3.7H90c2,0,3.6-1.6,3.6-3.7V55.5c0-2-1.6-3.7-3.6-3.7h-0.9c-2,0-3.6-1.6-3.6-3.7v-0.7
		C85.5,45.4,83.9,43.8,81.9,43.8z"/>
	<path id="XMLID_8_" class="st2" d="M99.7,27.8H80.8c-1.9,0-3.5,1.6-3.5,3.6v8.9c0,2,1.6,3.6,3.5,3.6h1.1c1.9,0,3.5,1.6,3.5,3.6v0.9
		c0,2,1.6,3.6,3.5,3.6h10.7c1.9,0,3.5-1.6,3.5-3.6V31.4C103.2,29.4,101.6,27.8,99.7,27.8z"/>
</g>
</svg>
